<svg xmlns="http://www.w3.org/2000/svg" width="3264" height="2175" viewBox="0 0 3264 2175" version="1.1"><path d="M 3.675 0.658 C 3.313 1.020, 3.528 1.931, 4.151 2.682 C 5.625 4.457, 4.457 5.625, 2.682 4.151 C 1.931 3.528, 1.020 3.313, 0.658 3.675 C 0.296 4.037, 0 492.733, 0 1089.667 L -0 2175.001 1632.250 2174.750 L 3264.500 2174.500 3264.782 1090.500 C 3264.937 494.300, 3264.804 5.037, 3264.487 3.250 L 3263.909 -0 1634.121 -0 C 737.738 -0, 4.037 0.296, 3.675 0.658 M 0.498 1089.500 C 0.498 1686.800, 0.611 1931, 0.750 1632.167 C 0.889 1333.334, 0.889 844.634, 0.750 546.167 C 0.611 247.700, 0.498 492.200, 0.498 1089.500 M 1617.500 510.020 C 1557.729 515.346, 1500.962 538.256, 1453.794 576.086 C 1440.905 586.424, 1419.012 608.365, 1408.500 621.481 C 1389.249 645.500, 1370.047 679.275, 1359.633 707.436 C 1334.179 776.269, 1333.819 852.319, 1358.623 920.795 C 1381.249 983.257, 1419.404 1031.989, 1478 1073.263 C 1479.375 1074.231, 1475.325 1072.358, 1469 1069.099 C 1407.185 1037.256, 1338.195 1027.284, 1271.603 1040.566 C 1227.886 1049.286, 1185.583 1068.258, 1150 1095.104 C 1121.762 1116.408, 1098.150 1141.477, 1079.160 1170.317 C 1050.525 1213.805, 1033.974 1261.269, 1028.883 1314.500 C 1026.363 1340.849, 1028.999 1381.216, 1034.989 1408 C 1045.377 1454.455, 1066.528 1498.728, 1095.661 1535 C 1116.933 1561.484, 1147.411 1588.089, 1175.726 1604.890 C 1238.227 1641.976, 1309.219 1655.421, 1379.601 1643.500 C 1497.786 1623.483, 1592.933 1534.751, 1622.476 1417 C 1625.918 1403.280, 1629.948 1381.302, 1630.063 1375.625 C 1630.179 1369.940, 1631.653 1375.814, 1632.390 1384.895 C 1632.764 1389.512, 1634.173 1399.637, 1635.520 1407.395 C 1654.773 1518.286, 1732.269 1609.387, 1837.721 1645.096 C 1924.143 1674.361, 2020.465 1662.012, 2096.442 1611.928 C 2114.945 1599.731, 2126.147 1590.760, 2141.549 1575.807 C 2191.933 1526.890, 2222.054 1466.976, 2232.700 1394.500 C 2235.440 1375.849, 2235.147 1329.441, 2232.171 1310.561 C 2226.543 1274.862, 2217.630 1246.316, 2202.835 1216.602 C 2195.266 1201.402, 2193.395 1198.170, 2183.371 1183 C 2160.797 1148.836, 2133.186 1121.112, 2099 1098.285 C 2049.784 1065.422, 1992.584 1048.005, 1933.856 1048.001 C 1868.240 1047.997, 1808.001 1067.779, 1755.334 1106.627 C 1687.379 1156.751, 1643.667 1232.203, 1632.877 1318 L 1631.557 1328.500 1630.859 1317 C 1629.087 1287.781, 1621.554 1255.494, 1609.500 1225.456 C 1587.009 1169.407, 1546.697 1119.252, 1498 1086.735 C 1489.072 1080.773, 1486.744 1078.674, 1493 1082.225 C 1522.741 1099.108, 1557.277 1111.742, 1589 1117.345 C 1609.991 1121.052, 1615.879 1121.499, 1643 1121.450 C 1671.949 1121.398, 1686.203 1119.962, 1707.907 1114.908 C 1783.041 1097.414, 1848.968 1052.285, 1890.873 989.663 C 1926.646 936.203, 1944 879.545, 1944 816.206 C 1944 765.611, 1933.996 722.324, 1912.060 678 C 1867.297 587.554, 1782.787 526.263, 1683.088 511.940 C 1667.295 509.671, 1632.759 508.660, 1617.500 510.020" stroke="none" fill="#5db8ed" fill-rule="evenodd"/><path d="M 1617.500 510.020 C 1557.729 515.346, 1500.962 538.256, 1453.794 576.086 C 1440.905 586.424, 1419.012 608.365, 1408.500 621.481 C 1389.249 645.500, 1370.047 679.275, 1359.633 707.436 C 1334.179 776.269, 1333.819 852.319, 1358.623 920.795 C 1381.249 983.257, 1419.404 1031.989, 1478 1073.263 C 1479.375 1074.231, 1475.325 1072.358, 1469 1069.099 C 1407.185 1037.256, 1338.195 1027.284, 1271.603 1040.566 C 1227.886 1049.286, 1185.583 1068.258, 1150 1095.104 C 1121.762 1116.408, 1098.150 1141.477, 1079.160 1170.317 C 1050.525 1213.805, 1033.974 1261.269, 1028.883 1314.500 C 1026.363 1340.849, 1028.999 1381.216, 1034.989 1408 C 1045.377 1454.455, 1066.528 1498.728, 1095.661 1535 C 1116.933 1561.484, 1147.411 1588.089, 1175.726 1604.890 C 1238.227 1641.976, 1309.219 1655.421, 1379.601 1643.500 C 1497.786 1623.483, 1592.933 1534.751, 1622.476 1417 C 1625.918 1403.280, 1629.948 1381.302, 1630.063 1375.625 C 1630.179 1369.940, 1631.653 1375.814, 1632.390 1384.895 C 1632.764 1389.512, 1634.173 1399.637, 1635.520 1407.395 C 1654.773 1518.286, 1732.269 1609.387, 1837.721 1645.096 C 1924.143 1674.361, 2020.465 1662.012, 2096.442 1611.928 C 2114.945 1599.731, 2126.147 1590.760, 2141.549 1575.807 C 2191.933 1526.890, 2222.054 1466.976, 2232.700 1394.500 C 2235.440 1375.849, 2235.147 1329.441, 2232.171 1310.561 C 2226.543 1274.862, 2217.630 1246.316, 2202.835 1216.602 C 2195.266 1201.402, 2193.395 1198.170, 2183.371 1183 C 2160.797 1148.836, 2133.186 1121.112, 2099 1098.285 C 2049.784 1065.422, 1992.584 1048.005, 1933.856 1048.001 C 1868.240 1047.997, 1808.001 1067.779, 1755.334 1106.627 C 1687.379 1156.751, 1643.667 1232.203, 1632.877 1318 L 1631.557 1328.500 1630.859 1317 C 1629.087 1287.781, 1621.554 1255.494, 1609.500 1225.456 C 1587.009 1169.407, 1546.697 1119.252, 1498 1086.735 C 1489.072 1080.773, 1486.744 1078.674, 1493 1082.225 C 1522.741 1099.108, 1557.277 1111.742, 1589 1117.345 C 1609.991 1121.052, 1615.879 1121.499, 1643 1121.450 C 1671.949 1121.398, 1686.203 1119.962, 1707.907 1114.908 C 1783.041 1097.414, 1848.968 1052.285, 1890.873 989.663 C 1926.646 936.203, 1944 879.545, 1944 816.206 C 1944 765.611, 1933.996 722.324, 1912.060 678 C 1867.297 587.554, 1782.787 526.263, 1683.088 511.940 C 1667.295 509.671, 1632.759 508.660, 1617.500 510.020" stroke="none" fill="#ffffff" fill-rule="evenodd"/></svg>